<?xml version="1.0" encoding="utf-8"?>
<!-- Generator: Adobe Illustrator 27.1.1, SVG Export Plug-In . SVG Version: 6.00 Build 0)  -->
<svg version="1.1" id="Layer_1" xmlns="http://www.w3.org/2000/svg" xmlns:xlink="http://www.w3.org/1999/xlink" x="0px" y="0px"
	 viewBox="0 0 1600 189.46" style="enable-background:new 0 0 1600 189.46;" xml:space="preserve">
<style type="text/css">
	.st0{fill:#0A5E73;}
	.st1{fill:none;stroke:#0A5E73;stroke-width:4.8427;stroke-miterlimit:10;}
	.st2{fill:#CA8901;}
	.st3{fill:#FFFFFF;}
</style>
<g>
	<path class="st3" d="M0,0c533.33,0,1066.67,0,1600,0c0,54.79,0,109.58,0,164.38c-3.93,4.83-9.61,5.54-15.11,6.96
		c-8.75,2.27-17.26,3.46-25.62-1.47c-1.64-0.97-3.92-1.76-5.68-1.43c-9.86,1.86-17.46-1.21-23.55-9.42
		c-4.36-5.87-10.51-7.39-17.49-5.24c-1.89,0.58-3.85,0.95-5.8,1.27c-4.67,0.77-9.42,1.18-14.03,2.27
		c-3.71,0.87-7.18,2.76-10.87,3.74c-3.71,0.99-7.7,0.89-9.62-3.15c-1.83-3.86-4.39-4.08-8.09-3.97c-5.19,0.15-11.49,0.98-15.42-1.55
		c-14.13-9.1-28.47-5.33-42.33-1.4c-6.11,1.74-11.33,2.83-17.24,1c-2.71-0.84-5.4-1.97-8.17-2.24c-1.83-0.18-4.7,0.3-5.54,1.57
		c-5.67,8.57-18.17,9.25-25.2,4.21c-6.21-4.46-11.17-3.03-16.95-0.95c-2.98,1.08-5.98,2.24-9.07,2.83
		c-1.99,0.38-4.61,0.52-6.15-0.49c-3.86-2.55-7.85-2.99-11.95-1.78c-6.36,1.87-12.75,3.81-18.86,6.39
		c-6.34,2.67-12.53,4.82-19.28,2.09c-5.26-2.12-10.33-1.86-15.55,0.29c-2.24,0.92-4.87,1.46-7.25,1.27
		c-8.49-0.66-15.86-3.75-22.19-10.03c-7.4-7.35-16.36-12.66-26.65-14.19c-11.97-1.77-24.09-2.58-36.17-3.48
		c-8.05-0.6-16.16,0.4-23.14-5.74c-3.99-3.5-8.3-2.13-12.4,1.33c-2.39,2.02-5.18,3.94-8.1,4.83c-6.85,2.08-13.91,3.43-20.84,5.22
		c-7.09,1.83-15.03,2.37-21.01,6.11c-10.04,6.28-21.11,8.97-31.86,12.89c-9.2,3.36-18.29,5.22-27.29-0.96
		c-1.74-1.2-4.4-1.27-6.66-1.35c-4.63-0.18-9.28-0.22-13.89,0.09c-2.53,0.17-5.68,0.42-7.36,1.97c-4.22,3.88-8.94,4.98-14.28,4.76
		c-6.16-0.26-11.63,1.51-17.14,4.5c-5.34,2.9-11.33,5.92-17.17,6.23c-14.08,0.75-28.26,0.39-42.36-0.37
		c-13.95-0.75-27.83-2.9-41.79-3.71c-6.31-0.37-11.06-1.87-14.81-7.45c-5.25-7.8-6.61-7.6-12.22-0.14c-0.2,0.27-0.44,0.52-0.6,0.81
		c-2.81,4.95-7.14,6.55-12.58,6.71c-6.98,0.21-13.94,1.11-20.91,1.61c-17.93,1.28-35.85,2.8-53.8,3.61
		c-10.82,0.49-20.97-2.3-30.47-8.2c-3.87-2.41-9.11-2.62-13.78-3.55c-3.4-0.68-7.97,0.37-10.13-1.56
		c-6.26-5.58-13.04-5.78-20.46-4.65c-1.43,0.22-2.99-0.55-4.45-0.41c-3.06,0.3-6.63,0.01-9.03,1.54
		c-7.22,4.58-14.49,4.28-22.12,1.94c-7.01-2.14-14.06-4.16-21.03-6.41c-2.2-0.71-4.42-1.7-6.29-3.05
		c-8.53-6.17-18.28-8.81-28.34-10.76c-6.05-1.18-12.17-2.2-18.05-4.01c-4.22-1.3-8.49-3.23-12.02-5.88
		c-5.45-4.1-9.41-4.48-15.01-0.51c-2.38,1.69-5.17,3.27-7.96,3.73c-4.57,0.75-9.29,0.52-13.95,0.75
		c-8.31,0.42-16.64,0.55-24.91,1.38c-15.24,1.53-28.39,7.89-39.74,18.47c-8.36,7.8-18.04,9.66-29.03,6.03
		c-3.56-1.17-8.16-1.27-11.65-0.02c-7.6,2.72-14.17,1.02-21.22-1.88c-7.02-2.89-14.5-4.69-21.87-6.62
		c-1.74-0.46-4.27-0.14-5.69,0.89c-4.27,3.12-8.36,2.39-12.78,0.71c-3.74-1.42-7.72-2.23-11.4-3.79c-3.02-1.28-5.05-0.78-7.65,1.3
		c-8.33,6.66-21.69,6-27.26-1.39c-2.38-3.15-4.6-3.91-8.07-2.48c-2.3,0.95-4.75,1.66-7.2,2.06c-3.73,0.61-8.26,2.39-11.12,0.93
		c-6.34-3.23-13.01-3.87-19.66-5.03c-9.86-1.72-19.45-1.75-28.2,4.58c-2,1.45-4.98,1.88-7.55,2.01c-3.3,0.18-6.65-0.7-9.95-0.56
		c-1.72,0.07-3.98,0.89-4.97,2.19c-4.14,5.42-6.31,6.32-12.69,4.4c-8.18-2.46-15.76-7.75-24.96-5.58c-0.57,0.13-1.29-0.29-1.9-0.54
		c-8.67-3.5-15.63-1.08-21.11,6.37c-5.3,7.21-12.48,8.9-20.83,7.8c-2.02-0.26-4.59-0.07-6.2,1.02c-6.54,4.4-13.77,4.35-20.76,2.93
		c-6.36-1.29-13.15-3.13-18.34-6.8c-4.7-3.32-9.43-6-14.61-8.27c-5.22-2.29-9.11-1.45-13.59,2.34C29.95,170.02,17.02,178.65,0,179
		C0,119.37,0,59.68,0,0z"/>
</g>
</svg>
