<?xml version="1.0" encoding="utf-8"?>
<!-- Generator: Adobe Illustrator 27.1.1, SVG Export Plug-In . SVG Version: 6.00 Build 0)  -->
<svg version="1.1" id="OBJECTS" xmlns="http://www.w3.org/2000/svg" xmlns:xlink="http://www.w3.org/1999/xlink" x="0px" y="0px"
	 viewBox="0 0 51.32 55.41" style="enable-background:new 0 0 51.32 55.41;" xml:space="preserve">
<style type="text/css">
	.st0{fill:none;}
	.st1{fill:#7BC5F8;}
	.st2{fill:#8DD6FF;}
	.st3{fill:#5FC1ED;}
	.st4{fill:#FFFFFF;}
	.st5{fill:#4ACC59;}
	.st6{fill:#56D860;}
	.st7{fill:#32BA46;}
	.st8{fill:#30B240;}
	.st9{fill:#29A334;}
	.st10{fill:#E03636;}
	.st11{fill:#EF4545;}
	.st12{fill:#EA1B1B;}
	.st13{fill:#D80E0E;}
	.st14{fill:#F7F7F8;}
	.st15{fill:url(#SVGID_1_);}
	.st16{fill:url(#SVGID_00000043421885989213499510000004343768732649509307_);}
	.st17{fill:#238EE5;}
	.st18{fill:#33A5F2;}
	.st19{fill:#287CF7;}
	.st20{fill:#1472E2;}
	.st21{fill:#106AC4;}
	.st22{fill:#F38259;}
	.st23{fill:#F5AB4A;}
	.st24{fill:#F04471;}
	.st25{fill:#CF2A8C;}
	.st26{fill:#B02A9E;}
	.st27{fill:#972AAB;}
	.st28{fill:#5479BA;}
	.st29{fill:#6994D1;}
	.st30{fill:#415FA3;}
	.st31{fill:#395398;}
	.st32{fill:#2E4A89;}
	.st33{fill:#169DC1;}
	.st34{fill:#18A1D1;}
	.st35{fill:#067FB5;}
	.st36{fill:#0077A0;}
	.st37{fill-rule:evenodd;clip-rule:evenodd;fill:#FFFFFF;}
	.st38{fill:#545454;}
	.st39{fill:#6B6B6B;}
	.st40{fill:#444444;}
	.st41{fill:#333333;}
	.st42{fill:#161616;}
	.st43{fill:#D8D9DD;}
	.st44{fill:#C2C3C9;}
	.st45{fill:#A8AAB2;}
	.st46{fill:#9B9DA3;}
	.st47{fill-rule:evenodd;clip-rule:evenodd;fill:#333333;}
</style>
<g>
	<g>
		<g>
			<g>
				<g>
					<path class="st22" d="M31.5,41.4c-1.95-1.41-4.28-2.09-6.48-3c-2.2-0.91-4.42-2.18-5.63-4.3c-1.01-1.78-1.18-3.93-1.52-5.97
						c-0.35-2.04-0.99-4.2-2.6-5.42c-2.05-1.55-4.97-1-7.16,0.32s-3.95,3.3-6.06,4.74c-0.44,0.3-0.9,0.58-1.38,0.83
						c0.04,1.2,0.24,2.37,0.69,3.5c0.07,0.18,0.14,0.36,0.22,0.54c1.51-0.14,3.03-0.23,4.51,0.07c1.76,0.36,3.49,1.34,4.36,2.98
						c0.85,1.62,1.05,3.97,2.74,4.52c1.47,0.48,3.07-0.88,4.54-0.41c0.89,0.28,1.49,1.18,1.74,2.11c0.25,0.93,0.23,1.92,0.28,2.89
						c0.09,1.71,0.43,3.4,0.99,5.01c2.65-0.98,5.48-1.45,8.29-1.35c1.72,0.06,3.45,0.33,5.17,0.58c0.2-0.44,0.35-0.91,0.42-1.41
						C34.99,45.19,33.45,42.81,31.5,41.4z"/>
				</g>
				<g>
					<path class="st23" d="M19.47,41.91c-0.25-0.93-0.85-1.83-1.74-2.11c-1.48-0.47-3.07,0.9-4.54,0.41
						c-1.69-0.56-1.88-2.91-2.74-4.52c-0.87-1.64-2.6-2.62-4.36-2.98c-1.48-0.3-3-0.22-4.51-0.07c1.13,2.72,2.53,5.4,2.7,8.35
						c0.13,2.26-0.48,4.49-0.66,6.74c-0.18,2.26,0.2,4.77,1.84,6.24c1.67,1.49,4.18,1.45,6.24,0.67c2.06-0.78,3.84-2.19,5.75-3.3
						c1.05-0.61,2.15-1.12,3.29-1.54c-0.56-1.61-0.91-3.3-0.99-5.01C19.7,43.83,19.73,42.85,19.47,41.91z"/>
				</g>
			</g>
			<g>
				<g>
					<path class="st24" d="M34.4,26.96c-0.3-1.32-0.62-2.65-0.99-3.95c-2.21-1.54-4.37-3.2-6.52-4.78
						c-5.84-4.26-12.85-8.11-19.8-6.45c-1.5,0.36-2.9,0.95-4.22,1.72c-0.03,0.15-0.05,0.29-0.08,0.44
						c-0.51,2.93-1.03,5.85-1.54,8.78c-0.33,2.05-0.64,4-0.57,5.87c0.47-0.25,0.93-0.53,1.38-0.83c2.11-1.45,3.87-3.42,6.06-4.74
						s5.11-1.86,7.16-0.32c1.61,1.21,2.26,3.38,2.6,5.42c0.35,2.04,0.51,4.19,1.52,5.97c1.21,2.13,3.42,3.39,5.63,4.3
						c2.2,0.91,4.53,1.59,6.48,3c1.95,1.41,3.49,3.79,3.13,6.23c-0.07,0.5-0.22,0.97-0.42,1.41c2.17,0.31,4.33,0.58,6.44,0.38
						c-1.64-2.57-2.37-5.65-3.06-8.66C36.53,36.16,35.46,31.56,34.4,26.96z"/>
				</g>
				<g>
					<path class="st25" d="M49.75,42.7c1.24-3.02,1.12-6.51,0.19-9.65c-0.43-1.44-1.02-2.85-1.59-4.27
						c-0.92-0.03-1.83-0.1-2.74-0.23c-4.45-0.67-8.42-2.9-12.2-5.53c0.38,1.3,0.69,2.63,0.99,3.95c1.06,4.6,2.13,9.2,3.19,13.79
						c0.7,3.01,1.43,6.09,3.06,8.66c0.93-0.09,1.84-0.27,2.74-0.59C46.21,47.84,48.59,45.55,49.75,42.7z"/>
				</g>
			</g>
			<g>
				<g>
					<path class="st26" d="M48.29,15.36c-0.36,0.04-0.72,0.05-1.08,0.05c-2.12-0.04-4.19-0.72-6.17-1.52
						c-5.6-2.26-10.8-5.46-16.24-8.12c-1.44-0.7-2.91-1.37-4.4-1.97c-2.33-0.49-4.69-0.78-7.05-0.53C9.58,3.66,5.75,5.65,4.07,9.19
						c-0.64,1.35-0.94,2.84-1.21,4.32c1.32-0.77,2.72-1.36,4.22-1.72c6.95-1.66,13.96,2.19,19.8,6.45
						c5.84,4.26,11.67,9.25,18.73,10.3c0.91,0.14,1.82,0.2,2.74,0.23c-1.06-2.64-2.03-5.27-1.68-8.05
						C46.91,18.92,47.69,17.12,48.29,15.36z"/>
				</g>
				<g>
					<path class="st27" d="M41.04,13.89c1.98,0.8,4.04,1.48,6.17,1.52c0.36,0.01,0.72-0.01,1.08-0.05c0.66-1.95,1.1-3.86,0.32-5.7
						c-0.96-2.26-3.48-3.36-5.84-3.51c-2.36-0.14-4.7,0.45-7.07,0.56c-3.78,0.18-7.5-0.88-11.16-1.88
						c-1.37-0.37-2.75-0.74-4.14-1.03c1.49,0.6,2.96,1.26,4.4,1.97C30.24,8.42,35.44,11.63,41.04,13.89z"/>
				</g>
			</g>
		</g>
		<g>
			<g>
				<path class="st26" d="M29.91,5.8c3.38,0,3.38-5.25,0-5.25C26.54,0.56,26.53,5.8,29.91,5.8L29.91,5.8z"/>
			</g>
		</g>
	</g>
	<g>
		<g>
			<path class="st4" d="M32.13,44.98H19.08c-5.79,0-10.5-4.92-10.5-10.97V22.01c0-6.05,4.71-10.97,10.5-10.97h13.05
				c5.79,0,10.5,4.92,10.5,10.97v12.01C42.64,40.06,37.93,44.98,32.13,44.98z M19.08,13.48c-4.5,0-8.17,3.83-8.17,8.53v12.01
				c0,4.7,3.67,8.53,8.17,8.53h13.05c4.5,0,8.17-3.83,8.17-8.53V22.01c0-4.7-3.67-8.53-8.17-8.53H19.08z"/>
		</g>
		<g>
			<path class="st4" d="M25.61,37.77c-5.16,0-9.35-4.38-9.35-9.76c0-5.38,4.19-9.76,9.35-9.76c5.16,0,9.35,4.38,9.35,9.76
				C34.96,33.39,30.76,37.77,25.61,37.77z M25.61,20.68c-3.87,0-7.02,3.29-7.02,7.33c0,4.04,3.15,7.33,7.02,7.33
				s7.02-3.29,7.02-7.33C32.62,23.97,29.48,20.68,25.61,20.68z"/>
		</g>
		<g>
			<path class="st4" d="M36.76,18.55c0,1.12-0.87,2.03-1.94,2.03c-1.07,0-1.94-0.91-1.94-2.03c0-1.12,0.87-2.03,1.94-2.03
				C35.89,16.52,36.76,17.43,36.76,18.55z"/>
		</g>
	</g>
</g>
</svg>
