<?xml version="1.0" encoding="utf-8"?>
<!-- Generator: Adobe Illustrator 27.1.1, SVG Export Plug-In . SVG Version: 6.00 Build 0)  -->
<svg version="1.1" id="OBJECTS" xmlns="http://www.w3.org/2000/svg" xmlns:xlink="http://www.w3.org/1999/xlink" x="0px" y="0px"
	 viewBox="0 0 51.32 55.41" style="enable-background:new 0 0 51.32 55.41;" xml:space="preserve">
<style type="text/css">
	.st0{fill:none;}
	.st1{fill:#7BC5F8;}
	.st2{fill:#8DD6FF;}
	.st3{fill:#5FC1ED;}
	.st4{fill:#FFFFFF;}
	.st5{fill:#4ACC59;}
	.st6{fill:#56D860;}
	.st7{fill:#32BA46;}
	.st8{fill:#30B240;}
	.st9{fill:#29A334;}
	.st10{fill:#E03636;}
	.st11{fill:#EF4545;}
	.st12{fill:#EA1B1B;}
	.st13{fill:#D80E0E;}
	.st14{fill:#F7F7F8;}
	.st15{fill:url(#SVGID_1_);}
	.st16{fill:url(#SVGID_00000139255088152547377540000008509161737096351159_);}
	.st17{fill:#238EE5;}
	.st18{fill:#33A5F2;}
	.st19{fill:#287CF7;}
	.st20{fill:#1472E2;}
	.st21{fill:#106AC4;}
	.st22{fill:#F38259;}
	.st23{fill:#F5AB4A;}
	.st24{fill:#F04471;}
	.st25{fill:#CF2A8C;}
	.st26{fill:#B02A9E;}
	.st27{fill:#972AAB;}
	.st28{fill:#5479BA;}
	.st29{fill:#6994D1;}
	.st30{fill:#415FA3;}
	.st31{fill:#395398;}
	.st32{fill:#2E4A89;}
	.st33{fill:#169DC1;}
	.st34{fill:#18A1D1;}
	.st35{fill:#067FB5;}
	.st36{fill:#0077A0;}
	.st37{fill-rule:evenodd;clip-rule:evenodd;fill:#FFFFFF;}
	.st38{fill:#545454;}
	.st39{fill:#6B6B6B;}
	.st40{fill:#444444;}
	.st41{fill:#333333;}
	.st42{fill:#161616;}
	.st43{fill:#D8D9DD;}
	.st44{fill:#C2C3C9;}
	.st45{fill:#A8AAB2;}
	.st46{fill:#9B9DA3;}
	.st47{fill-rule:evenodd;clip-rule:evenodd;fill:#333333;}
</style>
<g>
	<g>
		<g>
			<g>
				<g>
					<g>
						<g>
							<g>
								<g>
									<path class="st33" d="M32.16,40.34c-1.95-1.36-4.28-2.02-6.48-2.91c-2.2-0.88-4.42-2.11-5.63-4.17
										c-1.01-1.73-1.18-3.81-1.52-5.79c-0.35-1.98-0.99-4.08-2.6-5.26c-2.05-1.5-4.97-0.97-7.16,0.31
										c-2.19,1.28-3.95,3.2-6.06,4.6c-0.44,0.29-0.9,0.56-1.38,0.81c0.04,1.16,0.24,2.29,0.69,3.39
										c0.07,0.17,0.14,0.35,0.22,0.52c1.51-0.14,3.03-0.22,4.51,0.07c1.76,0.35,3.49,1.3,4.36,2.89
										c0.85,1.57,1.05,3.85,2.74,4.39c1.47,0.47,3.07-0.85,4.54-0.4c0.89,0.27,1.49,1.14,1.74,2.05c0.25,0.9,0.23,1.86,0.28,2.8
										c0.09,1.66,0.43,3.3,0.99,4.86c2.65-0.95,5.48-1.41,8.29-1.31c1.71,0.06,3.45,0.32,5.17,0.56c0.2-0.43,0.35-0.88,0.42-1.36
										C35.65,44.02,34.11,41.71,32.16,40.34z"/>
								</g>
								<g>
									<path class="st34" d="M20.14,40.84c-0.25-0.9-0.85-1.78-1.74-2.05c-1.48-0.45-3.07,0.87-4.54,0.4
										c-1.69-0.54-1.88-2.82-2.74-4.39c-0.87-1.59-2.6-2.55-4.36-2.89c-1.48-0.29-3-0.21-4.51-0.07c1.13,2.64,2.53,5.24,2.7,8.1
										c0.13,2.19-0.48,4.35-0.66,6.54c-0.18,2.19,0.2,4.63,1.84,6.06c1.67,1.44,4.18,1.41,6.24,0.65
										c2.06-0.76,3.84-2.12,5.75-3.2c1.05-0.59,2.15-1.09,3.29-1.49c-0.56-1.56-0.91-3.2-0.99-4.86
										C20.36,42.7,20.39,41.75,20.14,40.84z"/>
								</g>
							</g>
							<g>
								<g>
									<path class="st35" d="M35.06,26.34c-0.3-1.28-0.62-2.57-0.99-3.83c-2.21-1.49-4.37-3.11-6.52-4.63
										c-5.84-4.13-12.85-7.86-19.8-6.26c-1.5,0.35-2.9,0.92-4.22,1.67c-0.03,0.14-0.05,0.29-0.08,0.43
										c-0.51,2.84-1.03,5.68-1.54,8.51c-0.33,1.98-0.64,3.88-0.57,5.7c0.47-0.24,0.93-0.51,1.38-0.81
										c2.11-1.4,3.87-3.32,6.06-4.6c2.19-1.28,5.11-1.81,7.16-0.31c1.61,1.18,2.26,3.28,2.6,5.26c0.35,1.98,0.51,4.06,1.52,5.79
										c1.21,2.06,3.42,3.29,5.63,4.17c2.2,0.88,4.53,1.54,6.48,2.91c1.95,1.36,3.49,3.67,3.13,6.04
										c-0.07,0.48-0.22,0.94-0.42,1.36c2.17,0.3,4.33,0.57,6.44,0.37c-1.64-2.49-2.37-5.48-3.06-8.4
										C37.19,35.26,36.13,30.8,35.06,26.34z"/>
								</g>
								<g>
									<path class="st35" d="M50.42,41.6c1.24-2.93,1.12-6.32,0.19-9.36c-0.43-1.39-1.02-2.77-1.59-4.14
										c-0.92-0.03-1.83-0.09-2.74-0.23c-4.45-0.65-8.42-2.81-12.2-5.36c0.38,1.26,0.69,2.55,0.99,3.83
										c1.06,4.46,2.13,8.92,3.19,13.38c0.7,2.92,1.43,5.9,3.06,8.4c0.93-0.09,1.84-0.27,2.75-0.57
										C46.88,46.58,49.25,44.37,50.42,41.6z"/>
								</g>
							</g>
							<g>
								<g>
									<path class="st36" d="M48.95,15.09c-0.36,0.03-0.72,0.05-1.08,0.04c-2.12-0.04-4.19-0.7-6.17-1.47
										c-5.6-2.19-10.8-5.3-16.24-7.87c-1.44-0.68-2.91-1.33-4.4-1.91c-2.33-0.48-4.69-0.75-7.05-0.52
										c-3.77,0.38-7.59,2.31-9.28,5.74c-0.64,1.31-0.94,2.75-1.21,4.19c1.32-0.74,2.72-1.32,4.22-1.67
										c6.95-1.61,13.96,2.12,19.8,6.26c5.84,4.13,11.67,8.97,18.73,9.99c0.91,0.13,1.82,0.2,2.74,0.23
										c-1.06-2.56-2.03-5.11-1.68-7.81C47.57,18.54,48.35,16.8,48.95,15.09z"/>
								</g>
								<g>
									<path class="st35" d="M41.7,13.66c1.98,0.77,4.04,1.44,6.17,1.47c0.36,0.01,0.72-0.01,1.08-0.04
										c0.66-1.89,1.1-3.74,0.32-5.53c-0.96-2.19-3.48-3.26-5.84-3.4c-2.36-0.14-4.7,0.44-7.07,0.55
										c-3.78,0.17-7.5-0.85-11.16-1.82c-1.37-0.36-2.75-0.72-4.14-1c1.49,0.58,2.96,1.22,4.4,1.91
										C30.9,8.36,36.1,11.48,41.7,13.66z"/>
								</g>
							</g>
						</g>
					</g>
					<path class="st36" d="M36.3,3.28c0,0.87-0.7,1.57-1.55,1.57c-0.86,0-1.55-0.7-1.55-1.57s0.7-1.57,1.55-1.57
						C35.6,1.71,36.3,2.41,36.3,3.28z"/>
				</g>
			</g>
		</g>
	</g>
	<g>
		<rect x="15.43" y="20.78" class="st37" width="5.22" height="16.76"/>
		<path class="st37" d="M21.09,15.39c0,1.71-1.37,3.09-3.05,3.09c-1.69,0-3.05-1.38-3.05-3.09c0-1.71,1.37-3.09,3.05-3.09
			C19.72,12.3,21.09,13.68,21.09,15.39z"/>
		<path class="st37" d="M34.78,20.17c-3.54,0-5.04,1.85-5.48,2.54v-1.92h-5.22v16.76h5.22v-9.89c0,0,0.45-2.94,2.91-2.94
			c2.45,0,2.88,2.7,2.88,3.46v9.45h5.22v-9.97C40.31,24.46,39.12,20.17,34.78,20.17z"/>
	</g>
</g>
</svg>
